<svg xmlns="http://www.w3.org/2000/svg" viewBox="0 0 320 238">
      <rect width="320" height="238" rx="14" fill="#090b0a"/>
      <text x="34" y="24" fill="#c8ff3d" font-size="9" font-family="monospace" letter-spacing="1.5">ML INFRASTRUCTURE</text>
      <text x="34" y="43" fill="#f2f4ef" font-size="16" font-weight="700" font-family="Inter,Arial">MEPLOY</text>
      
          <rect x="34" y="48" width="252" height="134" rx="10" fill="#101313" stroke="#30382c"/>
          <path d="M52 148 C90 132, 103 152, 135 126 S188 103, 214 116 S245 82, 268 70" fill="none" stroke="#c8ff3d" stroke-width="3"/>
          <path d="M52 156 C92 146, 110 162, 145 146 S196 130, 220 141 S248 116, 268 106" fill="none" stroke="#5e6a55" stroke-width="2"/>
          <circle cx="268" cy="70" r="6" fill="#c8ff3d"/>
          <rect x="50" y="62" width="68" height="10" rx="5" fill="#c8ff3d" opacity=".85"/>
          <rect x="50" y="84" width="98" height="7" rx="3" fill="#252b25"/>
        
      <rect x="34" y="196" width="64" height="20" rx="4" fill="#151a14" stroke="#30382c"/><text x="44" y="210" fill="#aeb8aa" font-size="9" font-family="Inter,Arial">Deploy</text><rect x="116" y="196" width="71" height="20" rx="4" fill="#151a14" stroke="#30382c"/><text x="126" y="210" fill="#aeb8aa" font-size="9" font-family="Inter,Arial">Latency</text><rect x="198" y="196" width="71" height="20" rx="4" fill="#151a14" stroke="#30382c"/><text x="208" y="210" fill="#aeb8aa" font-size="9" font-family="Inter,Arial">Monitor</text>
    </svg>